<svg width="38" height="78" viewBox="0 0 38 78" fill="none" xmlns="http://www.w3.org/2000/svg">
<path d="M33.3297 8.47376C30.749 8.47376 28.6593 10.5447 28.6384 13.1048L28.5235 25.9052C28.5131 26.6232 28.231 27.2789 27.7399 27.7576C27.2802 28.2155 26.6324 28.5173 25.9115 28.5277L26.11 7.27698V7.20413C26.11 3.34321 22.9546 0.189941 19.0679 0.189941C15.1812 0.189941 11.9527 3.40565 12.0259 7.31861L12.5691 40.9638H11.9632C10.7721 40.9638 9.82128 40.0064 9.83173 38.8304L9.92576 21.2013V21.1805C9.92576 18.7557 7.94062 16.768 5.49575 16.768C2.46578 16.768 0 19.224 0 22.2524V41.3281C0 47.1663 4.75392 51.9118 10.6362 51.9118H12.7468L13.0602 71.102C13.1229 74.4738 15.8917 77.1899 19.2769 77.1899C22.6621 77.1899 25.4622 74.453 25.4935 71.0603L25.7861 39.5693H26.9563C32.9013 39.5693 37.7492 34.803 37.8119 28.8711L38 13.1985V13.136C38 10.5655 35.9104 8.46336 33.3088 8.46336L33.3297 8.47376ZM12.9035 45.9695C12.3184 46.1985 11.1273 46.5003 9.80039 46.5003C8.5884 46.5003 7.25103 46.2401 6.17487 45.4388C4.09569 43.8882 4.13747 40.7973 4.17927 38.7472C4.2942 32.5031 4.46138 26.5608 4.71213 20.5977C4.72258 20.2751 4.99423 20.0357 5.32857 20.0253C5.66291 20.0461 5.91367 20.3167 5.90322 20.6393C5.65247 26.6024 5.48529 32.5239 5.37036 38.768C5.33901 40.6724 5.28678 43.295 6.8958 44.4917C8.71378 45.855 11.6184 45.1994 12.4856 44.8664C12.799 44.7519 13.1438 44.8976 13.2587 45.2098C13.3737 45.5012 13.2274 45.8446 12.9139 45.9695H12.9035ZM17.3544 73.9326H17.344C17.0201 73.9326 16.7484 73.6724 16.7484 73.3498L15.411 5.31009C15.4006 4.97707 15.6618 4.7065 15.9962 4.7065H16.0066C16.3305 4.7065 16.5917 4.95626 16.6021 5.28928L17.9395 73.329C17.9395 73.662 17.6783 73.9222 17.3544 73.9326ZM20.4262 4.46714C20.4157 4.13412 20.6665 3.86355 21.0008 3.85314C21.3247 3.84273 21.5964 4.1029 21.6173 4.42551L22.3591 24.0111C22.3695 24.3442 22.1188 24.6147 21.7844 24.6251H21.7635C21.4396 24.6251 21.1784 24.3754 21.168 24.0528L20.4262 4.46714ZM22.4113 71.7472C22.4113 72.0698 22.1397 72.3404 21.8158 72.3404H21.8053C21.4814 72.33 21.2202 72.0698 21.2202 71.7368L21.4292 32.066C21.4292 31.733 21.6904 31.4728 22.0247 31.4728C22.3591 31.4728 22.6203 31.7434 22.6203 32.0764L22.4113 71.7472ZM34.5208 23.8863C33.6536 30.4425 32.2848 32.2533 30.937 33.2316C29.6519 34.1786 28.022 34.6677 26.1309 34.6677H25.9637C25.6398 34.6573 25.3786 34.3971 25.3786 34.0641C25.3786 33.7311 25.6607 33.523 25.9846 33.4813C27.7086 33.5021 29.1086 33.1067 30.2266 32.2846C31.3132 31.4936 32.5147 29.8598 33.3297 23.7302C33.8103 20.0878 33.9357 16.3621 33.7058 12.6261C33.6954 12.2931 33.9461 12.0121 34.27 12.0017C34.5939 11.9705 34.876 12.2306 34.8969 12.5428C35.1268 16.3621 34.9909 20.171 34.4999 23.8863H34.5208Z" fill="#4D7747"/>
</svg>
