<svg width="329" height="109" viewBox="0 0 329 109" fill="none" xmlns="http://www.w3.org/2000/svg">
<g clip-path="url(#clip0_206_410)">
<path d="M107.34 107.68L102.25 83.37H111.31L113.1 94.21C113.38 95.88 113.62 97.87 113.76 100.18H114.11C114.37 97.89 114.68 95.79 114.99 94.12L116.99 83.37H124.61L126.85 94.17C127.2 95.84 127.47 97.89 127.68 100.18H128.06C128.25 97.89 128.48 95.93 128.72 94.26L130.28 83.37H139.05L134.19 107.68H122.95L121.65 100.67C121.44 99.56 121.09 97.02 120.83 94.25H120.46C120.22 97.03 119.87 99.53 119.66 100.66L118.39 107.69H107.31L107.34 107.68Z" fill="#FFF3D9"/>
<path d="M141.27 107.68V83.37H161.26V89.45H150.27V92.78H160.55V98.16H150.27V101.6H161.61V107.68H141.28H141.27Z" fill="#FFF3D9"/>
<path d="M163.71 100.13L172.55 99.44C172.81 101.61 173.96 102.48 176.23 102.48C178 102.48 178.92 101.99 178.92 100.95C178.92 99.91 178.09 99.53 174.54 98.76L171.01 98.01C167.49 97.25 163.98 95.42 164 90.72C164.02 85.49 168.45 82.85 175.65 82.85C183.32 82.85 187.09 85.89 187.11 90.79L179.05 91.48C178.89 89.59 177.89 88.58 175.39 88.58C173.62 88.58 172.59 89.19 172.59 90.06C172.59 90.86 172.97 91.28 176.64 92.07L180.2 92.83C183.76 93.61 187.82 94.65 187.82 99.86C187.82 105.07 183.18 108.19 175.63 108.19C168.08 108.19 163.82 105.31 163.7 100.11L163.71 100.13Z" fill="#FFF3D9"/>
<path d="M196.05 107.68V89.97H189.33V83.37H211.77V89.97H205.05V107.68H196.06H196.05Z" fill="#FFF3D9"/>
<path d="M0 61.29V61.22C0 52.73 4.29 48.63 13.13 48.63C21.08 48.63 24.94 51.43 25.55 56.93L16.61 58.02C16.28 55.83 15.15 54.79 13.14 54.79C10.5 54.79 9.22 56.6 9.22 60.33V61.94C9.22 65.78 10.49 67.62 13.09 67.62C15.12 67.62 16.3 66.53 16.7 64.23H12.39V59.19H25.81V73.45H18.33C18.17 72.24 18.52 70.52 19.39 68.14L18.94 67.97C17.13 71.96 14.48 73.89 9.91 73.89C3.28 73.89 0.01 69.77 0.01 61.28L0 61.29Z" fill="#FFF3D9"/>
<path d="M29.04 73.46V49.15H43.07C49.51 49.15 52.72 51.6 52.72 56.37V56.44C52.72 59.9 51.04 61.79 47.74 62.33V62.7C50.05 63.29 50.95 64.12 51.53 66.62L52.09 69.1C52.66 71.6 53.05 72.35 53.79 72.94L53.72 73.46H44.15C43.68 72.78 43.44 71.81 43.11 69.73L42.76 67.65C42.43 65.57 41.91 64.82 40.05 64.82H38.04V73.47H29.04V73.46ZM38.04 59.34H41.41C42.97 59.34 43.74 58.84 43.74 57.24V57.19C43.74 55.58 42.98 55.05 41.41 55.05H38.04V59.34Z" fill="#FFF3D9"/>
<path d="M55.0801 73.46L62.7701 49.15H73.8301L81.5901 73.46H72.2101L71.5701 70.8H64.4501L63.8101 73.46H55.0801ZM65.7801 65.42H70.3001L69.1001 60.33C68.7301 58.75 68.4601 57.27 68.2101 55.64H67.8601C67.6301 57.27 67.3401 58.75 66.9701 60.33L65.7701 65.42H65.7801Z" fill="#FFF3D9"/>
<path d="M83.7102 73.46V49.15H93.0502L98.1002 58.09C98.5902 58.98 99.1402 60.07 99.9402 61.91L100.31 61.84C100.1 59.93 100.01 58.64 100.01 57.24V49.15H108.69V73.46H99.4002L94.3602 64.52C93.8202 63.58 93.2102 62.3 92.4502 60.44L92.1002 60.53C92.2902 62.49 92.3802 63.85 92.3802 65.39V73.46H83.7002H83.7102Z" fill="#FFF3D9"/>
<path d="M112.03 73.46V49.15H124.39C132.9 49.15 137.01 53.09 137.01 61.27V61.34C137.01 69.52 132.89 73.46 124.39 73.46H112.03ZM121.02 67.38H123.78C126.49 67.38 127.81 65.82 127.81 62.6V59.98C127.81 56.77 126.49 55.22 123.78 55.22H121.02V67.38Z" fill="#FFF3D9"/>
<path d="M166.12 61.34V61.27C166.12 52.74 170.37 48.63 179.09 48.63C187.27 48.63 191.37 51.93 191.71 58.74L182.77 59.7C182.68 56.45 181.48 54.87 179.09 54.87C176.55 54.87 175.32 56.62 175.32 60.24V62.38C175.32 65.99 176.55 67.75 179.11 67.75C181.33 67.75 182.53 66.12 182.76 62.73L191.77 64.03C191.23 70.77 187.1 74.01 179.09 74.01C170.34 74.01 166.12 69.89 166.12 61.35V61.34Z" fill="#FFF3D9"/>
<path d="M192.34 73.46L200.03 49.15H211.09L218.85 73.46H209.47L208.83 70.8H201.71L201.07 73.46H192.34ZM203.03 65.42H207.54L206.34 60.33C205.98 58.75 205.7 57.27 205.45 55.64H205.1C204.87 57.27 204.58 58.75 204.21 60.33L203.01 65.42H203.03Z" fill="#FFF3D9"/>
<path d="M220.97 73.46V49.15H230.31L235.36 58.09C235.85 58.97 236.4 60.07 237.2 61.91L237.57 61.84C237.36 59.93 237.27 58.64 237.27 57.24V49.15H245.95V73.46H236.66L231.62 64.52C231.08 63.58 230.47 62.3 229.71 60.44L229.36 60.53C229.55 62.49 229.64 63.85 229.64 65.39V73.46H220.96H220.97Z" fill="#FFF3D9"/>
<path d="M256.4 73.46V65.06L248.07 49.15H257.48L259.56 53.72C259.99 54.66 260.48 56.01 260.91 57.66H261.28C261.73 56.01 262.2 54.66 262.62 53.72L264.6 49.15H273.72L265.39 65.06V73.46H256.41H256.4Z" fill="#FFF3D9"/>
<path d="M273.91 61.39V61.32C273.91 52.76 278.18 48.63 287.02 48.63C295.86 48.63 300.13 52.76 300.13 61.32V61.39C300.13 69.88 295.86 74 287.02 74C278.18 74 273.91 69.88 273.91 61.39ZM290.93 62.49V60.37C290.93 56.67 289.66 54.88 287.02 54.88C284.38 54.88 283.11 56.67 283.11 60.37V62.49C283.11 66.03 284.4 67.73 287.02 67.73C289.64 67.73 290.93 66.03 290.93 62.49Z" fill="#FFF3D9"/>
<path d="M303.03 73.46V49.15H312.37L317.42 58.09C317.91 58.97 318.46 60.07 319.26 61.91L319.62 61.84C319.41 59.93 319.33 58.64 319.33 57.24V49.15H328.01V73.46H318.72L313.68 64.52C313.14 63.58 312.53 62.3 311.77 60.44L311.42 60.53C311.61 62.49 311.7 63.85 311.7 65.39V73.46H303.02H303.03Z" fill="#FFF3D9"/>
<path d="M167.16 7.97001C164.69 7.97001 162.69 9.96001 162.67 12.42L162.56 24.72C162.55 25.41 162.28 26.04 161.81 26.5C161.37 26.94 160.75 27.23 160.06 27.24L160.25 6.82001V6.75001C160.25 3.04001 157.23 0.0100098 153.51 0.0100098C149.79 0.0100098 146.7 3.10001 146.77 6.86001L147.29 39.19H146.71C145.57 39.19 144.66 38.27 144.67 37.14L144.76 20.2V20.18C144.76 17.85 142.86 15.94 140.52 15.94C137.62 15.94 135.26 18.3 135.26 21.21V39.54C135.26 45.15 139.81 49.71 145.44 49.71H147.46L147.76 68.15C147.82 71.39 150.47 74 153.71 74C156.95 74 159.63 71.37 159.66 68.11L159.94 37.85H161.06C166.75 37.85 171.39 33.27 171.45 27.57L171.63 12.51V12.45C171.63 9.98001 169.63 7.96001 167.14 7.96001L167.16 7.97001ZM147.61 44C147.05 44.22 145.91 44.51 144.64 44.51C143.48 44.51 142.2 44.26 141.17 43.49C139.18 42 139.22 39.03 139.26 37.06C139.37 31.06 139.53 25.35 139.77 19.62C139.78 19.31 140.04 19.08 140.36 19.07C140.68 19.09 140.92 19.35 140.91 19.66C140.67 25.39 140.51 31.08 140.4 37.08C140.37 38.91 140.32 41.43 141.86 42.58C143.6 43.89 146.38 43.26 147.21 42.94C147.51 42.83 147.84 42.97 147.95 43.27C148.06 43.55 147.92 43.88 147.62 44H147.61ZM151.87 70.87H151.86C151.55 70.87 151.29 70.62 151.29 70.31L150.01 4.93001C150 4.61001 150.25 4.35001 150.57 4.35001H150.58C150.89 4.35001 151.14 4.59001 151.15 4.91001L152.43 70.29C152.43 70.61 152.18 70.86 151.87 70.87ZM154.81 4.12001C154.8 3.80001 155.04 3.54001 155.36 3.53001C155.67 3.52001 155.93 3.77001 155.95 4.08001L156.66 22.9C156.67 23.22 156.43 23.48 156.11 23.49H156.09C155.78 23.49 155.53 23.25 155.52 22.94L154.81 4.12001ZM156.71 68.77C156.71 69.08 156.45 69.34 156.14 69.34H156.13C155.82 69.33 155.57 69.08 155.57 68.76L155.77 30.64C155.77 30.32 156.02 30.07 156.34 30.07C156.66 30.07 156.91 30.33 156.91 30.65L156.71 68.77ZM168.3 22.78C167.47 29.08 166.16 30.82 164.87 31.76C163.64 32.67 162.08 33.14 160.27 33.14H160.11C159.8 33.13 159.55 32.88 159.55 32.56C159.55 32.24 159.82 32.04 160.13 32C161.78 32.02 163.12 31.64 164.19 30.85C165.23 30.09 166.38 28.52 167.16 22.63C167.62 19.13 167.74 15.55 167.52 11.96C167.51 11.64 167.75 11.37 168.06 11.36C168.37 11.33 168.64 11.58 168.66 11.88C168.88 15.55 168.75 19.21 168.28 22.78H168.3Z" fill="#FFF3D9"/>
</g>
<defs>
<clipPath id="clip0_206_410">
<rect width="328.02" height="108.2" fill="white"/>
</clipPath>
</defs>
</svg>
