<svg width="396" height="114" viewBox="0 0 396 114" fill="none" xmlns="http://www.w3.org/2000/svg">
<path d="M129.585 113.452L123.44 87.839H134.378L136.539 99.2601C136.877 101.02 137.167 103.116 137.336 105.55H137.758C138.072 103.137 138.446 100.925 138.821 99.1652L141.235 87.839H150.434L153.139 99.2179C153.561 100.977 153.887 103.137 154.141 105.55H154.599C154.829 103.137 155.106 101.072 155.396 99.3127L157.279 87.839H167.867L162 113.452H148.43L146.861 106.066C146.607 104.897 146.185 102.221 145.871 99.3022H145.424C145.135 102.231 144.712 104.865 144.459 106.056L142.925 113.463H129.549L129.585 113.452Z" fill="#7B4517"/>
<path d="M170.547 113.452V87.839H194.68V94.2449H181.412V97.7534H193.823V103.422H181.412V107.046H195.102V113.452H170.559H170.547Z" fill="#7B4517"/>
<path d="M197.638 105.497L208.31 104.77C208.623 107.057 210.012 107.973 212.752 107.973C214.889 107.973 216 107.457 216 106.361C216 105.266 214.998 104.865 210.712 104.054L206.45 103.264C202.201 102.463 197.964 100.535 197.988 95.583C198.012 90.0727 203.36 87.2911 212.052 87.2911C221.312 87.2911 225.863 90.4941 225.887 95.6568L216.157 96.3837C215.964 94.3924 214.756 93.3283 211.738 93.3283C209.601 93.3283 208.358 93.971 208.358 94.8876C208.358 95.7305 208.817 96.173 213.247 97.0054L217.545 97.8061C221.843 98.6279 226.744 99.7237 226.744 105.213C226.744 110.702 221.143 113.989 212.028 113.989C202.913 113.989 197.77 110.955 197.625 105.476L197.638 105.497Z" fill="#7B4517"/>
<path d="M236.68 113.452V94.7928H228.567V87.839H255.658V94.7928H247.545V113.452H236.692H236.68Z" fill="#7B4517"/>
<path d="M0 64.5754V64.5017C0 55.5566 5.17907 51.2368 15.8511 51.2368C25.4487 51.2368 30.1087 54.1869 30.8451 59.9817L20.0523 61.1301C19.6539 58.8227 18.2897 57.727 15.8632 57.727C12.6761 57.727 11.1308 59.634 11.1308 63.564V65.2603C11.1308 69.3061 12.664 71.2447 15.8028 71.2447C18.2535 71.2447 19.6781 70.0963 20.161 67.673H14.9577V62.3628H31.159V77.3872H22.1288C21.9356 76.1124 22.3582 74.3002 23.4085 71.7926L22.8652 71.6135C20.6801 75.8174 17.4809 77.8508 11.9638 77.8508C3.95976 77.8508 0.0120724 73.51 0.0120724 64.5649L0 64.5754Z" fill="#F86800"/>
<path d="M35.0586 77.3978V51.7847H51.9962C59.7709 51.7847 63.6461 54.366 63.6461 59.3917V59.4654C63.6461 63.1109 61.618 65.1022 57.6341 65.6712V66.061C60.4228 66.6826 61.5093 67.5571 62.2095 70.1911L62.8856 72.8041C63.5737 75.4381 64.0445 76.2283 64.9379 76.8499L64.8534 77.3978H53.3C52.7326 76.6813 52.4429 75.6593 52.0445 73.4679L51.622 71.2764C51.2236 69.0849 50.5958 68.2946 48.3503 68.2946H45.9238V77.4083H35.0586V77.3978ZM45.9238 62.5209H49.9922C51.8755 62.5209 52.8051 61.9941 52.8051 60.3083V60.2556C52.8051 58.5593 51.8876 58.0009 49.9922 58.0009H45.9238V62.5209Z" fill="#F86800"/>
<path d="M66.4951 77.3978L75.7788 51.7847H89.1309L98.4991 77.3978H87.1752L86.4026 74.5952H77.807L77.0344 77.3978H66.4951ZM79.4126 68.9268H84.8694L83.4207 63.564C82.974 61.8993 82.648 60.3399 82.3462 58.6226H81.9237C81.646 60.3399 81.2959 61.8993 80.8492 63.564L79.4005 68.9268H79.4126Z" fill="#F86800"/>
<path d="M101.058 77.3978V51.7847H112.334L118.431 61.2039C119.022 62.1416 119.686 63.29 120.652 65.2287L121.099 65.1549C120.845 63.1425 120.737 61.7834 120.737 60.3083V51.7847H131.215V77.3978H120L113.916 67.9786C113.264 66.9882 112.527 65.6396 111.61 63.6799L111.187 63.7747C111.417 65.8397 111.525 67.2727 111.525 68.8952V77.3978H101.046H101.058Z" fill="#F86800"/>
<path d="M135.248 77.3978V51.7847H150.169C160.443 51.7847 165.404 55.9359 165.404 64.5544V64.6281C165.404 73.2466 160.431 77.3978 150.169 77.3978H135.248ZM146.101 70.9919H149.433C152.704 70.9919 154.298 69.3483 154.298 65.9556V63.1952C154.298 59.8131 152.704 58.18 149.433 58.18H146.101V70.9919Z" fill="#F86800"/>
<path d="M200.547 64.6281V64.5543C200.547 55.5671 205.678 51.2368 216.205 51.2368C226.08 51.2368 231.03 54.7137 231.44 61.8887L220.647 62.9002C220.539 59.476 219.09 57.8113 216.205 57.8113C213.138 57.8113 211.654 59.6551 211.654 63.4691V65.7238C211.654 69.5274 213.138 71.3817 216.229 71.3817C218.909 71.3817 220.358 69.6643 220.635 66.0926L231.513 67.4623C230.861 74.5636 225.875 77.9773 216.205 77.9773C205.641 77.9773 200.547 73.6364 200.547 64.6386V64.6281Z" fill="#F86800"/>
<path d="M232.201 77.3978L241.485 51.7847H254.837L264.205 77.3978H252.881L252.109 74.5952H243.513L242.74 77.3978H232.201ZM245.107 68.9268H250.551L249.103 63.564C248.668 61.8993 248.33 60.3399 248.028 58.6226H247.606C247.328 60.3399 246.978 61.8993 246.531 63.564L245.082 68.9268H245.107Z" fill="#F86800"/>
<path d="M266.765 77.3978V51.7847H278.04L284.137 61.2039C284.728 62.1311 285.392 63.29 286.358 65.2287L286.805 65.1549C286.551 63.1425 286.443 61.7834 286.443 60.3083V51.7847H296.921V77.3978H285.706L279.622 67.9786C278.97 66.9882 278.233 65.6396 277.316 63.6799L276.893 63.7747C277.123 65.8397 277.231 67.2727 277.231 68.8952V77.3978H266.752H266.765Z" fill="#F86800"/>
<path d="M309.537 77.3978V68.5475L299.481 51.7847H310.841L313.352 56.5996C313.871 57.59 314.463 59.0124 314.982 60.7508H315.429C315.972 59.0124 316.539 57.59 317.046 56.5996L319.437 51.7847H330.447L320.39 68.5475V77.3978H309.549H309.537Z" fill="#F86800"/>
<path d="M330.676 64.6808V64.607C330.676 55.5882 335.831 51.2368 346.503 51.2368C357.175 51.2368 362.33 55.5882 362.33 64.607V64.6808C362.33 73.6259 357.175 77.9667 346.503 77.9667C335.831 77.9667 330.676 73.6259 330.676 64.6808ZM351.223 65.8397V63.6061C351.223 59.7078 349.69 57.8218 346.503 57.8218C343.316 57.8218 341.782 59.7078 341.782 63.6061V65.8397C341.782 69.5695 343.34 71.3606 346.503 71.3606C349.666 71.3606 351.223 69.5695 351.223 65.8397Z" fill="#F86800"/>
<path d="M365.831 77.3978V51.7847H377.107L383.203 61.2039C383.795 62.1311 384.459 63.29 385.425 65.2287L385.859 65.1549C385.606 63.1425 385.509 61.7834 385.509 60.3083V51.7847H395.988V77.3978H384.773L378.688 67.9786C378.036 66.9882 377.3 65.6396 376.382 63.6799L375.96 63.7747C376.189 65.8397 376.298 67.2727 376.298 68.8952V77.3978H365.819H365.831Z" fill="#F86800"/>
<path d="M201.803 8.39725C198.821 8.39725 196.406 10.4939 196.382 13.0858L196.249 26.0451C196.237 26.7721 195.911 27.4359 195.344 27.9205C194.813 28.3841 194.064 28.6897 193.231 28.7002L193.461 7.18561V7.11185C193.461 3.20298 189.815 0.0105591 185.324 0.0105591C180.833 0.0105591 177.102 3.2662 177.187 7.22775L177.815 41.2908H177.114C175.738 41.2908 174.64 40.3215 174.652 39.1309L174.76 21.2828V21.2618C174.76 18.8069 172.467 16.7945 169.642 16.7945C166.141 16.7945 163.292 19.281 163.292 22.347V41.6595C163.292 47.5703 168.784 52.3747 175.581 52.3747H178.02L178.382 71.8032C178.454 75.2168 181.654 77.9668 185.565 77.9668C189.477 77.9668 192.712 75.1958 192.748 71.761L193.086 39.879H194.438C201.308 39.879 206.909 35.0534 206.982 29.0479L207.199 13.1806V13.1174C207.199 10.515 204.784 8.38671 201.778 8.38671L201.803 8.39725ZM178.201 46.3586C177.525 46.5904 176.149 46.896 174.615 46.896C173.215 46.896 171.67 46.6326 170.426 45.8213C168.024 44.2514 168.072 41.1222 168.12 39.0466C168.253 32.725 168.446 26.7089 168.736 20.6717C168.748 20.3451 169.062 20.1028 169.448 20.0923C169.835 20.1133 170.125 20.3873 170.112 20.7139C169.823 26.751 169.63 32.7461 169.497 39.0677C169.461 40.9958 169.4 43.6509 171.259 44.8625C173.36 46.2427 176.716 45.579 177.718 45.2418C178.08 45.1259 178.479 45.2734 178.611 45.5895C178.744 45.8845 178.575 46.2322 178.213 46.3586H178.201ZM183.344 74.669H183.332C182.958 74.669 182.644 74.4056 182.644 74.0789L181.098 5.19429C181.086 4.85714 181.388 4.5832 181.774 4.5832H181.786C182.161 4.5832 182.463 4.83607 182.475 5.17322L184.02 74.0579C184.02 74.395 183.718 74.6584 183.344 74.669ZM186.893 4.34087C186.881 4.00372 187.171 3.72978 187.557 3.71925C187.931 3.70871 188.245 3.97211 188.269 4.29873L189.127 24.1276C189.139 24.4647 188.849 24.7387 188.463 24.7492H188.438C188.064 24.7492 187.762 24.4963 187.75 24.1697L186.893 4.34087ZM189.187 72.4564C189.187 72.783 188.873 73.057 188.499 73.057H188.487C188.112 73.0464 187.811 72.783 187.811 72.4459L188.052 32.2825C188.052 31.9453 188.354 31.6819 188.74 31.6819C189.127 31.6819 189.428 31.9558 189.428 32.293L189.187 72.4564ZM203.179 24.0011C202.177 30.6388 200.595 32.4721 199.038 33.4625C197.553 34.4213 195.67 34.9165 193.485 34.9165H193.292C192.917 34.9059 192.615 34.6425 192.615 34.3054C192.615 33.9682 192.941 33.7575 193.316 33.7154C195.308 33.7364 196.925 33.3361 198.217 32.5037C199.473 31.703 200.861 30.0488 201.803 23.8431C202.358 20.1555 202.503 16.3836 202.237 12.6011C202.225 12.264 202.515 11.9795 202.889 11.969C203.263 11.9374 203.589 12.2008 203.613 12.5168C203.879 16.3836 203.722 20.2398 203.155 24.0011H203.179Z" fill="#4D7747"/>
</svg>
