<svg width="49" height="48" viewBox="0 0 49 48" fill="none" xmlns="http://www.w3.org/2000/svg">
<path d="M34.9761 7.54688C34.2768 7.54688 33.5775 7.84658 33.078 8.39603C32.5785 8.94548 32.3287 9.64478 32.3787 10.3441L32.6284 13.391C32.3787 13.391 32.1289 13.5908 32.1289 13.8905V16.0384C32.1289 16.3381 32.3287 16.5379 32.6284 16.5379H32.9781L33.8272 41.7627C33.8272 42.3121 33.8772 43.6608 35.1259 43.6608C36.3747 43.6608 36.4246 42.3621 36.4246 41.7627L37.2738 16.5379H37.6234C37.9231 16.5379 38.1229 16.3381 38.1229 16.0384V13.8905C38.1229 13.6408 37.9231 13.391 37.6234 13.391L37.8732 10.3441C37.9231 9.64478 37.6734 8.89553 37.1739 8.39603C36.6744 7.84658 35.9751 7.54688 35.2758 7.54688H34.9761ZM33.9771 16.4879H36.2248L35.3757 41.6628C35.3757 42.5619 35.2258 42.5619 35.076 42.5619C34.9261 42.5619 34.8262 42.5619 34.7763 41.6628L33.9771 16.4879ZM33.1279 14.3401H37.074V15.4889H33.1279V14.3401ZM33.7773 9.04538C34.077 8.69573 34.5265 8.54588 34.9761 8.54588H35.2258C35.6754 8.54588 36.075 8.74568 36.4246 9.04538C36.7243 9.39503 36.8742 9.79463 36.8242 10.2442L36.5745 13.3411H33.6274L33.3777 10.2442C33.3277 9.79463 33.4776 9.34508 33.7773 9.04538Z" fill="#2528CC"/>
<path d="M16.4441 15.988V13.8402C16.4441 13.5405 16.2443 13.3407 15.9446 13.3407V9.994C15.9446 9.84415 15.8946 9.6943 15.7448 9.5944L11.8986 6.6973C11.7488 6.5974 11.549 6.54745 11.3991 6.64735C11.2493 6.74725 11.0994 6.8971 11.0994 7.0969L11.0495 13.2907H10.9995C10.6998 13.2907 10.5 13.4905 10.5 13.7902V15.9381C10.5 16.2378 10.6998 16.4376 10.9995 16.4376H11.3492L12.1983 41.7123C12.1983 42.2617 12.2483 43.6104 13.497 43.6104C14.7458 43.6104 14.7957 42.3117 14.7957 41.7123L15.6449 16.4875H15.9945C16.2443 16.4875 16.4441 16.2877 16.4441 15.988ZM12.3482 16.4875H14.5959L13.7468 41.6623C13.7468 42.5614 13.5969 42.5614 13.497 42.5614C13.3971 42.5614 13.2473 42.5614 13.1973 41.6623L12.3482 16.4875ZM14.9456 13.3407H12.0485V8.14585L14.8956 10.2937V13.3407H14.9456ZM15.4451 15.4885H11.499V14.3397H15.4451V15.4885Z" fill="#2528CC"/>
<path d="M24.6857 4C24.6358 4 24.6358 4 24.5858 4H24.4859C24.436 4 24.436 4 24.386 4C20.2402 4.24975 18.8915 6.84715 18.8416 6.94705C18.7417 7.0969 18.7916 7.2967 18.8915 7.44655L21.6887 11.2428C21.4889 11.2927 21.3391 11.4925 21.3391 11.6923V13.99C21.3391 14.2897 21.5389 14.4895 21.8386 14.4895H22.2382L23.1872 41.6124C23.1872 42.2118 23.2372 43.6104 24.5359 43.6104C25.8346 43.6104 25.8845 42.2118 25.8845 41.6124L26.7836 14.5395H27.1832C27.4829 14.5395 27.6827 14.3397 27.6827 14.04V11.7423C27.6827 11.5425 27.5828 11.3926 27.383 11.2927L30.2302 7.4965C30.3301 7.34665 30.38 7.14685 30.2801 6.997C30.1802 6.84715 28.8316 4.1998 24.6857 4ZM23.2871 14.5395H25.7846L24.8855 41.5624C24.8356 42.5614 24.6857 42.5614 24.5359 42.5614C24.386 42.5614 24.1862 42.5614 24.1862 41.5624L23.2871 14.5395ZM22.388 12.2418H26.6837V13.5405H22.388V12.2418ZM29.1812 7.14685L26.1842 11.2428H22.9375L19.8905 7.14685C20.2901 6.54745 21.6388 5.0989 24.5359 4.94905C27.4829 5.0989 28.7816 6.5974 29.1812 7.14685Z" fill="#2528CC"/>
</svg>
