<svg width="150" height="150" viewBox="0 0 150 150" fill="none" xmlns="http://www.w3.org/2000/svg">
<circle cx="75" cy="75" r="75" fill="#FEFBF9"/>
<path d="M45.0593 21.0184C45.2165 21.5413 46.4462 23.6425 46.8069 24.3031C56.1458 40.5619 65.5402 56.4996 70.5518 74.933C73.8712 86.9711 74.426 102.441 64.5416 112.112C54.1301 122.214 39.1693 123.223 29.7102 111.57C21.8507 102.477 21.5455 91.467 25.2349 80.7869C32.2529 60.2523 53.492 35.0292 74.3243 27.6705C98.2079 19.6145 109.757 40.5069 115.591 59.867C119.623 72.8869 122.008 86.026 124.431 99.3212C125.605 105.9 126.705 112.497 128 119.103H97.6809C98.9661 112.901 99.8075 106.68 100.372 100.468C101.685 83.4661 101.87 63.0417 94.4538 47.5169C88.9152 36.4147 80.6304 37.9837 71.2175 43.6449C57.4865 52.5542 45.8545 68.5928 41.2867 84.246C41.0463 85.0626 40.8521 85.8976 40.6857 86.7325C40.2511 88.8887 39.5946 92.8158 41.1665 96.8438C41.7768 98.4128 42.4795 100.138 44.2363 100.918C44.3843 100.982 45.762 101.569 47.3062 101.156C50.265 100.367 51.7537 96.5685 51.9756 95.1188C53.3811 86.2646 46.0302 72.5198 42.1744 65.5649C36.9409 56.2886 30.4869 47.2141 24.227 38.4241C23.1544 36.8551 22.0633 35.3687 21 33.4694L45.0685 21L45.0593 21.0184Z" fill="#370759"/>
</svg>
