<svg width="49" height="48" viewBox="0 0 49 48" fill="none" xmlns="http://www.w3.org/2000/svg">
<path d="M12.9222 42.6617H22.3128C22.6125 42.6617 22.8123 42.4619 22.8123 42.1622V28.1762C22.8123 27.8765 22.6125 27.6767 22.3128 27.6767H21.6135V12.4919C21.6135 12.1922 21.4137 11.9924 21.114 11.9924H20.6145V6.99741C20.6145 6.39801 20.3148 5.84856 19.8153 5.49891C19.3158 5.14926 18.6664 5.09931 18.117 5.29911L16.4187 5.99841C15.3697 6.39801 14.7204 7.39701 14.7204 8.54586V11.9924H14.2209C13.9212 11.9924 13.7214 12.1922 13.7214 12.4919V27.6767H13.0221C12.7224 27.6767 12.5226 27.8765 12.5226 28.1762V42.1622C12.4227 42.4619 12.6724 42.6617 12.9222 42.6617ZM15.6694 8.54586C15.6694 7.84656 16.119 7.19721 16.7683 6.94746L18.4666 6.24816C18.7164 6.14826 19.0161 6.14826 19.2159 6.34806C19.4656 6.49791 19.5655 6.74766 19.5655 7.04736V12.0424H15.6694V8.54586ZM14.6704 12.9914H20.6145V27.6767H14.6704V12.9914ZM13.4217 28.6757H21.8133V41.6627H13.4217V28.6757Z" fill="#E02B9A"/>
<path d="M26.1099 42.6613H35.5005C35.8002 42.6613 36 42.4615 36 42.1618V4.4995C36 4.1998 35.8002 4 35.5005 4H26.1099C25.8102 4 25.6104 4.1998 25.6104 4.4995V42.1618C25.6104 42.4615 25.8102 42.6613 26.1099 42.6613ZM26.6094 4.999H35.001V27.6763H26.6094V4.999ZM26.6094 28.6753H35.001V41.6623H26.6094V28.6753Z" fill="#E02B9A"/>
</svg>
