<svg width="92" height="28" viewBox="0 0 92 28" fill="none" xmlns="http://www.w3.org/2000/svg">
<path d="M29.2715 14.8704C29.2715 7.23327 34.0118 1.33984 41.1198 1.33984C48.2277 1.33984 52.7012 6.92282 52.7012 14.4694C52.7012 22.016 47.9609 28 40.853 28C33.745 28 29.2715 22.417 29.2715 14.8704ZM41.4332 26.9729C43.4899 26.9729 44.4743 23.0431 44.4743 17.2376C44.4743 8.66394 43.3578 2.36693 40.5395 2.36693C38.4828 2.36693 37.4985 6.29674 37.4985 12.1022C37.4985 20.6759 38.6149 26.9729 41.4332 26.9729Z" fill="#FEFBF9"/>
<path d="M51.4033 1.74414H59.8531L64.9042 19.3391L70.1808 1.74414H71.836L63.1609 27.8222H60.524L51.4033 1.74414Z" fill="#FEFBF9"/>
<path d="M76.8421 5.71824C73.713 5.71824 72.0577 8.26395 71.5215 11.8368H70.8947C71.2962 6.79189 73.9358 1.29688 80.5981 1.29688C84.8463 1.29688 87.7527 4.06508 88.6464 10.4966L91.0606 27.644H83.0124L81.8052 17.1507H81.6265C80.2847 24.8318 77.8265 27.913 74.2932 27.913C71.6562 27.913 69.8223 26.2159 69.8223 23.1786C69.8223 19.7843 72.0137 17.7302 76.8421 14.1574C78.4067 12.9958 79.9272 11.9247 81.1343 11.0322L81.0903 10.8097C80.7328 7.64046 79.4351 5.71824 76.8421 5.71824ZM77.9586 20.9899C80.3728 20.9899 81.5799 17.2826 81.4452 14.0229L81.2224 11.8342L80.5515 12.3257C77.197 14.7369 76.0365 16.478 76.0365 18.4882C76.0365 20.0508 76.7515 20.9899 77.9586 20.9899Z" fill="#FEFBF9"/>
<path d="M6.7401 0.00517421C6.78414 0.152639 7.12866 0.745087 7.22968 0.931359C9.84594 5.51571 12.4777 10.0095 13.8817 15.207C14.8116 18.6013 14.9671 22.9632 12.198 25.69C9.28124 28.5384 5.09005 28.823 2.44011 25.5373C0.238313 22.9735 0.152831 19.869 1.18638 16.8576C3.15246 11.0676 9.10251 3.95569 14.9386 1.88083C21.6295 -0.390653 24.8648 5.50019 26.4993 10.959C27.6287 14.6301 28.297 18.3348 28.9757 22.0835C29.3047 23.9385 29.6129 25.7986 29.9756 27.6613H21.4818C21.8419 25.9125 22.0776 24.1584 22.2356 22.4069C22.6034 17.613 22.6552 11.8541 20.5778 7.47674C19.0262 4.34634 16.7052 4.78874 14.0682 6.38498C10.2215 8.89706 6.96287 13.4193 5.68324 17.8329C5.61589 18.0632 5.56149 18.2986 5.51486 18.534C5.39312 19.142 5.2092 20.2493 5.64956 21.385C5.82053 21.8274 6.01739 22.3138 6.50956 22.5337C6.55101 22.5518 6.93697 22.7174 7.36956 22.601C8.19847 22.3785 8.61552 21.3074 8.67769 20.8987C9.07142 18.4021 7.01209 14.5266 5.93191 12.5656C4.46577 9.95001 2.6577 7.39136 0.904034 4.91292C0.603553 4.47052 0.297891 4.05141 0 3.51588L6.74269 0L6.7401 0.00517421Z" fill="#FEFBF9"/>
</svg>
