<svg width="79" height="24" viewBox="0 0 79 24" fill="none" xmlns="http://www.w3.org/2000/svg">
<path d="M25.0898 12.7462C25.0898 6.20013 29.153 1.14868 35.2455 1.14868C41.3381 1.14868 45.1725 5.93403 45.1725 12.4025C45.1725 18.8709 41.1094 23.9999 35.0168 23.9999C28.9243 23.9999 25.0898 19.2146 25.0898 12.7462ZM35.5142 23.1196C37.2771 23.1196 38.1208 19.7512 38.1208 14.7752C38.1208 7.4264 37.1639 2.02903 34.7482 2.02903C32.9853 2.02903 32.1415 5.3974 32.1415 10.3734C32.1415 17.7222 33.0985 23.1196 35.5142 23.1196Z" fill="#370759"/>
<path d="M44.0605 1.49438H51.3032L55.6328 16.5755L60.1556 1.49438H61.5743L54.1385 23.8467H51.8783L44.0605 1.49438Z" fill="#370759"/>
<path d="M65.8647 4.90096C63.1826 4.90096 61.7638 7.08297 61.3042 10.1453H60.7669C61.111 5.82122 63.3735 1.11127 69.0841 1.11127C72.7254 1.11127 75.2166 3.48398 75.9826 8.99667L78.052 23.6942H71.1535L70.1188 14.7001H69.9656C68.8155 21.2838 66.7084 23.9248 63.6799 23.9248C61.4196 23.9248 59.8477 22.4702 59.8477 19.8668C59.8477 16.9575 61.726 15.1968 65.8647 12.1344C67.2058 11.1388 68.5091 10.2207 69.5437 9.45569L69.506 9.26498C69.1996 6.54856 68.0872 4.90096 65.8647 4.90096ZM66.8216 17.9908C68.891 17.9908 69.9256 14.8132 69.8102 12.0191L69.6192 10.1431L69.0442 10.5644C66.1689 12.6311 65.1742 14.1235 65.1742 15.8465C65.1742 17.1859 65.787 17.9908 66.8216 17.9908Z" fill="#370759"/>
<path d="M5.77724 0.00443498C5.81499 0.130832 6.11029 0.638638 6.19688 0.798297C8.43939 4.72769 10.6952 8.57948 11.8986 13.0344C12.6957 15.9438 12.8289 19.6825 10.4554 22.0197C7.95536 24.4612 4.36291 24.7051 2.09153 21.8889C0.204268 19.6913 0.130998 17.0303 1.0169 14.4492C2.70212 9.48643 7.80216 3.39055 12.8045 1.61212C18.5396 -0.334841 21.3127 4.71439 22.7138 9.3933C23.6818 12.5399 24.2546 15.7154 24.8364 18.9285C25.1183 20.5185 25.3826 22.1128 25.6934 23.7094H18.413C18.7216 22.2104 18.9237 20.7069 19.0591 19.2057C19.3744 15.0967 19.4188 10.1605 17.6381 6.40855C16.3082 3.72539 14.3188 4.10458 12.0585 5.47277C8.76134 7.62596 5.96819 11.5021 4.87136 15.2852C4.81363 15.4825 4.767 15.6843 4.72704 15.8861C4.62268 16.4072 4.46504 17.3563 4.84249 18.3298C4.98903 18.709 5.15778 19.1259 5.57963 19.3144C5.61516 19.3299 5.94599 19.4718 6.31678 19.372C7.02728 19.1813 7.38475 18.2633 7.43803 17.9129C7.77552 15.773 6.01037 12.4512 5.08451 10.7704C3.82781 8.52847 2.27804 6.33538 0.774888 4.21102C0.517332 3.83183 0.255335 3.47259 0 3.01357L5.77946 0L5.77724 0.00443498Z" fill="#370759"/>
</svg>
