<svg width="49" height="48" viewBox="0 0 49 48" fill="none" xmlns="http://www.w3.org/2000/svg">
<path d="M24.5 3.90039C26.0335 3.90039 27.2434 4.99854 28.5977 6.2998L28.5986 6.30176C28.9627 6.65009 29.3612 7.0323 29.7559 7.36133C30.1427 7.68389 30.585 8.00547 31.0469 8.19629C31.4868 8.37889 32.0081 8.45478 32.4844 8.49414C32.9738 8.53458 33.5055 8.54242 33.9902 8.5498C35.9016 8.57918 37.5729 8.64516 38.7139 9.78613C39.8548 10.9271 39.9208 12.5984 39.9502 14.5098C39.9576 14.9945 39.9654 15.5262 40.0059 16.0156C40.0403 16.4328 40.1025 16.8848 40.2402 17.2861L40.3037 17.4551C40.4946 17.9174 40.8167 18.3581 41.1387 18.7441C41.4677 19.1386 41.8502 19.5377 42.1982 19.9014H42.1992C43.5014 21.2585 44.5996 22.4664 44.5996 24C44.5996 25.5336 43.5014 26.7415 42.1992 28.0986H42.1982C41.8499 28.4627 41.4677 28.8612 41.1387 29.2559C40.8165 29.6423 40.4946 30.0836 40.3037 30.5449C40.1206 30.9852 40.0453 31.5075 40.0059 31.9844C39.9654 32.4738 39.9576 33.0055 39.9502 33.4902C39.9208 35.4016 39.8548 37.0729 38.7139 38.2139C37.5729 39.3548 35.9016 39.4208 33.9902 39.4502C33.5055 39.4576 32.9738 39.4654 32.4844 39.5059C32.0075 39.5453 31.4852 39.6206 31.0449 39.8037C30.5826 39.9946 30.1419 40.3167 29.7559 40.6387C29.3614 40.9677 28.9623 41.3502 28.5986 41.6982V41.6992C27.2415 43.0014 26.0336 44.0996 24.5 44.0996C22.9665 44.0996 21.7566 43.0015 20.4023 41.7002L20.4014 41.6982L19.834 41.1611C19.6396 40.981 19.4414 40.8032 19.2441 40.6387C18.8571 40.316 18.4142 39.9935 17.9521 39.8027C17.5125 39.6205 16.9915 39.5452 16.5156 39.5059C16.0262 39.4654 15.4945 39.4576 15.0098 39.4502C13.0984 39.4208 11.4271 39.3548 10.2861 38.2139C9.14516 37.0729 9.07918 35.4016 9.0498 33.4902C9.04242 33.0055 9.03458 32.4738 8.99414 31.9844C8.95966 31.5672 8.89747 31.1152 8.75977 30.7139L8.69629 30.5449C8.50535 30.0826 8.18335 29.6419 7.86133 29.2559C7.53225 28.8614 7.14975 28.4623 6.80176 28.0986H6.80078C5.49864 26.7415 4.40039 25.5336 4.40039 24C4.40039 22.4664 5.49864 21.2585 6.80078 19.9014H6.80176C7.15009 19.5373 7.5323 19.1388 7.86133 18.7441C8.18399 18.3571 8.5055 17.9142 8.69629 17.4521C8.87864 17.0124 8.95481 16.4916 8.99414 16.0156C9.03447 15.5275 9.04244 14.9973 9.0498 14.5137C9.08915 12.5936 9.14534 10.9269 10.2861 9.78613C11.4271 8.64516 13.0984 8.57918 15.0098 8.5498C15.4945 8.54242 16.0277 8.53459 16.5176 8.49414C16.994 8.45479 17.5166 8.37816 17.9561 8.19434C18.4178 8.00332 18.8585 7.68299 19.2441 7.36133C19.6386 7.03225 20.0377 6.64975 20.4014 6.30176V6.30078C21.7585 4.99864 22.9664 3.90039 24.5 3.90039ZM24.5 5.09961C23.8035 5.09961 23.1671 5.50226 22.7031 5.85449C22.2032 6.23396 21.6898 6.72792 21.2314 7.16699C20.3287 8.03182 19.5259 8.78876 18.5996 9.22363L18.4121 9.30664C17.6945 9.60284 16.8814 9.69368 15.9707 9.72852L15.0273 9.75C14.3812 9.75918 13.6508 9.76959 13.0059 9.85938C12.3955 9.94437 11.6494 10.1237 11.1367 10.6348C10.622 11.1479 10.4429 11.8987 10.3584 12.5088C10.3137 12.8317 10.2891 13.1759 10.2744 13.5195L10.25 14.5273C10.2307 15.8287 10.2016 16.9553 9.80664 17.9121C9.38963 18.919 8.58589 19.775 7.66797 20.7314C7.23023 21.1875 6.73651 21.7004 6.35645 22.2012C6.00414 22.6654 5.59961 23.3033 5.59961 24C5.59961 24.6965 6.00226 25.3329 6.35449 25.7969C6.73396 26.2968 7.22792 26.8102 7.66699 27.2686C8.53182 28.1713 9.28876 28.9741 9.72363 29.9004L9.80664 30.0879C10.2016 31.0447 10.2307 32.1713 10.25 33.4727C10.2592 34.1188 10.2696 34.8492 10.3594 35.4941C10.4444 36.1045 10.6237 36.8506 11.1348 37.3633C11.6479 37.878 12.3987 38.0571 13.0088 38.1416C13.6547 38.2311 14.3855 38.2408 15.0273 38.25L15.9707 38.2715C16.8813 38.3063 17.6946 38.3963 18.4121 38.6924V38.6934C19.419 39.1104 20.2772 39.9152 21.2305 40.832C21.6863 41.2704 22.1999 41.7633 22.7012 42.1436C23.1657 42.4959 23.8035 42.9004 24.5 42.9004C25.1965 42.9004 25.8329 42.4977 26.2969 42.1455C26.7968 41.766 27.3102 41.2721 27.7686 40.833C28.7316 39.9104 29.5811 39.1104 30.5879 38.6934L30.5869 38.6924C31.5438 38.2973 32.6711 38.2693 33.9727 38.25L33.9717 38.249C34.6179 38.2398 35.349 38.2304 35.9941 38.1406C36.6045 38.0556 37.3506 37.8763 37.8633 37.3652C38.378 36.8521 38.5571 36.1013 38.6416 35.4912C38.7311 34.8453 38.7408 34.1145 38.75 33.4727L38.7715 32.5293C38.8063 31.6186 38.8972 30.8055 39.1934 30.0879C39.6104 29.0811 40.4104 28.2316 41.333 27.2686L41.332 27.2676C41.7697 26.8116 42.2636 26.2994 42.6436 25.7988C42.9959 25.3346 43.4004 24.6967 43.4004 24C43.4004 23.3035 42.9977 22.6671 42.6455 22.2031C42.266 21.7032 41.7721 21.1898 41.333 20.7314C40.4104 19.7684 39.6104 18.9189 39.1934 17.9121C38.8972 17.1945 38.8063 16.3814 38.7715 15.4707L38.75 14.5273C38.7408 13.8812 38.7304 13.1508 38.6406 12.5059C38.5556 11.8955 38.3763 11.1494 37.8652 10.6367C37.3521 10.122 36.6013 9.94292 35.9912 9.8584C35.6683 9.81366 35.3241 9.78909 34.9805 9.77441L33.9727 9.75C32.6709 9.73071 31.5439 9.7019 30.5869 9.30664H30.5879C29.581 8.8896 28.7228 8.08477 27.7695 7.16797C27.3137 6.72961 26.8001 6.23673 26.2988 5.85645C25.8343 5.50405 25.1965 5.09961 24.5 5.09961ZM30.6787 26.4043C31.5684 26.4485 32.413 26.8212 33.0459 27.4541C33.721 28.1292 34.0996 29.0452 34.0996 30C34.0996 30.712 33.8887 31.408 33.4932 32C33.0976 32.592 32.5357 33.0537 31.8779 33.3262C31.2202 33.5986 30.4961 33.6701 29.7979 33.5312C29.0995 33.3923 28.4576 33.0494 27.9541 32.5459C27.4506 32.0424 27.1077 31.4005 26.9688 30.7021C26.8299 30.0039 26.9014 29.2798 27.1738 28.6221C27.4463 27.9643 27.908 27.4024 28.5 27.0068C29.092 26.6113 29.788 26.4004 30.5 26.4004L30.6787 26.4043ZM31.418 27.7822C30.9797 27.6008 30.4975 27.554 30.0322 27.6465C29.5667 27.7391 29.1384 27.9671 28.8027 28.3027C28.4671 28.6384 28.2391 29.0667 28.1465 29.5322C28.054 29.9975 28.1008 30.4797 28.2822 30.918C28.4639 31.3565 28.7723 31.7314 29.167 31.9951C29.5617 32.2588 30.0254 32.4004 30.5 32.4004C31.1365 32.4004 31.7472 32.1474 32.1973 31.6973C32.6474 31.2472 32.9004 30.6365 32.9004 30C32.9004 29.5254 32.7588 29.0617 32.4951 28.667C32.2314 28.2723 31.8565 27.9639 31.418 27.7822ZM32 15.8994C32.0788 15.8994 32.1567 15.9152 32.2295 15.9453C32.3024 15.9755 32.369 16.0194 32.4248 16.0752C32.4806 16.131 32.5245 16.1976 32.5547 16.2705C32.5848 16.3433 32.6006 16.4212 32.6006 16.5L32.5889 16.6172C32.5812 16.6556 32.5697 16.6931 32.5547 16.7295C32.5245 16.8024 32.4806 16.869 32.4248 16.9248L17.4248 31.9248C17.369 31.9806 17.3024 32.0245 17.2295 32.0547C17.1567 32.0848 17.0788 32.1006 17 32.1006C16.9212 32.1006 16.8433 32.0848 16.7705 32.0547C16.6976 32.0245 16.631 31.9806 16.5752 31.9248C16.5194 31.869 16.4755 31.8024 16.4453 31.7295C16.4303 31.6931 16.4188 31.6556 16.4111 31.6172L16.3994 31.5C16.3994 31.4212 16.4152 31.3433 16.4453 31.2705C16.4755 31.1976 16.5194 31.131 16.5752 31.0752L31.5752 16.0752C31.631 16.0194 31.6976 15.9755 31.7705 15.9453C31.8433 15.9152 31.9212 15.8994 32 15.8994ZM17.7979 14.4688C18.4961 14.3299 19.2202 14.4014 19.8779 14.6738C20.5357 14.9463 21.0976 15.408 21.4932 16C21.8394 16.5181 22.0441 17.1159 22.0898 17.7344L22.0996 18C22.0996 18.9548 21.721 19.8708 21.0459 20.5459C20.413 21.1788 19.5684 21.5515 18.6787 21.5957L18.5 21.5996C17.788 21.5996 17.092 21.3887 16.5 20.9932C15.908 20.5976 15.4463 20.0357 15.1738 19.3779C14.9014 18.7202 14.8299 17.9961 14.9688 17.2979C15.1077 16.5995 15.4506 15.9576 15.9541 15.4541C16.4576 14.9506 17.0995 14.6077 17.7979 14.4688ZM18.9678 15.6465C18.5025 15.554 18.0203 15.6008 17.582 15.7822C17.1435 15.9639 16.7686 16.2723 16.5049 16.667C16.2412 17.0617 16.0996 17.5253 16.0996 18C16.0996 18.6365 16.3526 19.2472 16.8027 19.6973C17.2528 20.1474 17.8635 20.4004 18.5 20.4004C18.9747 20.4004 19.4383 20.2588 19.833 19.9951C20.2277 19.7314 20.5361 19.3565 20.7178 18.918C20.8992 18.4797 20.946 17.9975 20.8535 17.5322C20.7609 17.0667 20.5329 16.6384 20.1973 16.3027C19.8616 15.9671 19.4333 15.7391 18.9678 15.6465Z" fill="#EB2C2C"/>
</svg>
