<svg width="49" height="48" viewBox="0 0 49 48" fill="none" xmlns="http://www.w3.org/2000/svg">
<path d="M21.2932 24.6291H18.6459V12.1916H19.3951C19.6948 12.1916 19.8946 11.9918 19.8946 11.6921C19.8946 11.3924 19.6948 11.1926 19.3951 11.1926H18.6459V10.793H19.9446C20.2443 10.793 20.4441 10.5932 20.4441 10.2935C20.4441 9.99378 20.2443 9.79398 19.9446 9.79398H18.6459V9.39438H19.9446C20.2443 9.39438 20.4441 9.19458 20.4441 8.89488C20.4441 8.59518 20.2443 8.39538 19.9446 8.39538H18.6459V7.99578H19.9446C20.2443 7.99578 20.4441 7.79598 20.4441 7.49628C20.4441 7.19658 20.2443 6.99678 19.9446 6.99678H18.6459V6.59718H19.3951C19.6948 6.59718 19.8946 6.39737 19.8946 6.09767C19.8946 5.79797 19.6948 5.59817 19.3951 5.59817H18.6459V5.24852C18.6459 4.94882 18.4461 4.74902 18.1464 4.74902C17.8467 4.74902 17.6469 4.94882 17.6469 5.24852V5.59817H16.8976C16.5979 5.59817 16.3981 5.79797 16.3981 6.09767C16.3981 6.39737 16.5979 6.59718 16.8976 6.59718H17.6469V6.99678H16.3482C16.0485 6.99678 15.8487 7.19658 15.8487 7.49628C15.8487 7.79598 16.0485 7.99578 16.3482 7.99578H17.6469V8.39538H16.3482C16.0485 8.39538 15.8487 8.59518 15.8487 8.89488C15.8487 9.19458 16.0485 9.39438 16.3482 9.39438H17.6469V9.79398H16.3482C16.0485 9.79398 15.8487 9.99378 15.8487 10.2935C15.8487 10.5932 16.0485 10.793 16.3482 10.793H17.6469V11.1926H16.8976C16.5979 11.1926 16.3981 11.3924 16.3981 11.6921C16.3981 11.9918 16.5979 12.1916 16.8976 12.1916H17.6469V24.5792H14.9995C14.6998 24.5792 14.5 24.779 14.5 25.0787V41.4124C14.5 41.7121 14.6998 41.9119 14.9995 41.9119H21.2932C21.5929 41.9119 21.7927 41.7121 21.7927 41.4124V25.1286C21.7927 24.8289 21.543 24.6291 21.2932 24.6291ZM20.7937 40.9628H15.499V25.6281H20.7937V40.9628Z" fill="#1E8318"/>
<path d="M31.6829 4H25.3891C25.0894 4 24.8896 4.1998 24.8896 4.4995V41.4625C24.8896 41.7622 25.0894 41.962 25.3891 41.962H31.6829C31.9826 41.962 32.1824 41.7622 32.1824 41.4625V4.4995C32.1824 4.1998 31.9826 4 31.6829 4ZM31.1834 40.963H25.8886V25.8781H31.1834V40.963ZM31.1834 24.8791H25.8886V4.999H31.1834V24.8791Z" fill="#1E8318"/>
</svg>
