<svg width="49" height="48" viewBox="0 0 49 48" fill="none" xmlns="http://www.w3.org/2000/svg">
<path d="M12.3963 42.2238C12.5857 43.2527 13.4828 44 14.5292 44H31.219C32.2655 44 33.1621 43.2527 33.3519 42.2238L36.7365 23.8437C37.1006 21.8676 36.5717 19.8487 35.286 18.3047C34.0002 16.7607 32.1106 15.8751 30.1011 15.8751H27.4803V14.522C27.4803 13.6274 26.9308 12.8586 26.1496 12.5305V6.13586C26.1496 4.95804 25.1506 4 23.9223 4H21.8264C20.5981 4 19.5991 4.95804 19.5991 6.13586V12.55C18.8389 12.8866 18.3064 13.6424 18.3064 14.5215V15.8746H15.6481C13.6386 15.8746 11.749 16.7602 10.4633 18.3042C9.17756 19.8482 8.64909 21.8671 9.01273 23.8432L12.3963 42.2238ZM21.8259 4.999H23.9218C24.5991 4.999 25.1501 5.50899 25.1501 6.13586V12.3611H20.5971V6.13586C20.5971 5.50899 21.1486 4.999 21.8259 4.999ZM19.3044 14.522C19.3044 13.8816 19.8309 13.3606 20.4778 13.3606H25.3079C25.9548 13.3606 26.4813 13.8816 26.4813 14.522V15.8751H19.3044V14.522ZM11.2295 18.9441C12.3249 17.6284 13.9348 16.8741 15.6466 16.8741H30.1006C31.8124 16.8741 33.4223 17.6284 34.5177 18.9441C35.6131 20.2597 36.0632 21.9795 35.7535 23.6628L32.3689 42.043C32.2665 42.5979 31.783 43.001 31.2185 43.001H14.5287C13.9648 43.001 13.4808 42.5979 13.3784 42.043L9.99425 23.6628C9.68406 21.9795 10.1346 20.2597 11.2295 18.9441Z" fill="#269ECA"/>
<path d="M28.7388 21.4513C29.4935 21.4513 30.2038 21.7839 30.6863 22.3638C31.1689 22.9438 31.3677 23.702 31.2308 24.4443L30.6778 27.4483C30.6279 27.7195 30.8072 27.9797 31.0784 28.0302C31.1089 28.0357 31.1394 28.0387 31.1694 28.0387C31.4056 28.0387 31.6159 27.8703 31.6599 27.6296L32.2128 24.6256C32.4036 23.5906 32.1269 22.5337 31.4531 21.725C30.7797 20.9163 29.7902 20.4528 28.7378 20.4528C28.4621 20.4528 28.2383 20.6765 28.2383 20.9523C28.2383 21.228 28.4626 21.4513 28.7388 21.4513Z" fill="#269ECA"/>
<path d="M30.5558 30.703C30.2856 30.6525 30.0233 30.8283 29.9714 31.0991L28.844 36.9757C28.792 37.2464 28.9694 37.5082 29.2401 37.5601C29.2716 37.5661 29.3035 37.5691 29.3345 37.5691C29.5693 37.5691 29.7786 37.4028 29.8245 37.1635L30.9519 31.2869C31.0038 31.0167 30.8265 30.7549 30.5558 30.703Z" fill="#269ECA"/>
<path d="M22.8931 8.07646C23.1688 8.07646 23.3926 7.85269 23.3926 7.57696V6.92162C23.3926 6.6459 23.1688 6.42212 22.8931 6.42212C22.6173 6.42212 22.3936 6.6459 22.3936 6.92162V7.57696C22.3936 7.85269 22.6168 8.07646 22.8931 8.07646Z" fill="#269ECA"/>
</svg>
