<svg width="49" height="48" viewBox="0 0 49 48" fill="none" xmlns="http://www.w3.org/2000/svg">
<path d="M4.90039 36.0173V37.429C4.90039 41.0304 7.83032 43.96 11.4317 43.96H35.8311C39.4325 43.96 42.3624 41.0304 42.3624 37.429V36.0173C42.3624 35.7412 42.1388 35.5178 41.8629 35.5178H32.4655C37.4654 32.455 40.6161 26.9464 40.6161 21.005C40.6161 11.6286 32.9968 4 23.6314 4C14.266 4 6.64669 11.6286 6.64669 21.005C6.64669 26.9465 9.79726 32.4549 14.7973 35.5178H5.39989C5.12404 35.5178 4.90039 35.7412 4.90039 36.0173ZM16.8399 35.4983C11.2546 32.8701 7.64569 27.1809 7.64569 21.005C7.64569 12.1793 14.8167 4.999 23.6314 4.999C32.4461 4.999 39.6171 12.1793 39.6171 21.005C39.6171 27.1809 36.0087 32.8696 30.4239 35.4978C30.4134 35.5028 30.407 35.5122 30.397 35.5178H16.8661C16.8563 35.5124 16.8501 35.5031 16.8399 35.4983ZM26.6565 36.5168C26.5335 38.0798 25.2252 39.3143 23.6314 39.3143C22.0376 39.3143 20.7294 38.0798 20.6063 36.5168H26.6565ZM5.89939 36.5168H19.6073C19.7326 38.6307 21.4869 40.3133 23.6314 40.3133C25.776 40.3133 27.5303 38.6307 27.6555 36.5168H41.3634V37.429C41.3634 40.4791 38.8815 42.961 35.8311 42.961H11.4317C8.38128 42.961 5.89939 40.4791 5.89939 37.429V36.5168Z" fill="#D18D28"/>
<path d="M35.546 21.0472C35.546 14.4693 30.201 9.11768 23.6309 9.11768C17.0608 9.11768 11.7158 14.4693 11.7158 21.0472C11.7158 27.625 17.0608 32.9761 23.6309 32.9761C30.201 32.9761 35.546 27.625 35.546 21.0472ZM12.7148 21.0472C12.7148 15.02 17.6118 10.1167 23.6309 10.1167C29.65 10.1167 34.547 15.02 34.547 21.0472C34.547 27.0738 29.65 31.9771 23.6309 31.9771C17.6118 31.9771 12.7148 27.0738 12.7148 21.0472Z" fill="#D18D28"/>
<path d="M23.9895 13.5117C23.9895 13.2356 23.7659 13.0122 23.49 13.0122C19.333 13.0122 15.9512 16.398 15.9512 20.5598C15.9512 20.8359 16.1748 21.0593 16.4507 21.0593C16.7265 21.0593 16.9502 20.8359 16.9502 20.5598C16.9502 16.9487 19.884 14.0112 23.49 14.0112C23.7659 14.0112 23.9895 13.7878 23.9895 13.5117Z" fill="#D18D28"/>
</svg>
